<?xml version="1.0" encoding="utf-8"?>
<!-- Generator: Adobe Illustrator 26.0.3, SVG Export Plug-In . SVG Version: 6.00 Build 0)  -->
<svg version="1.1" id="Layer_1" xmlns="http://www.w3.org/2000/svg" xmlns:xlink="http://www.w3.org/1999/xlink" x="0px" y="0px"
	 viewBox="0 0 285.4 285.67" style="enable-background:new 0 0 285.4 285.67;" xml:space="preserve">
<g transform="translate(0.000000,360.000000) scale(0.100000,-0.100000)">
	<path d="M1180,3586.09c-137-23-255-62-390-129c-395-196-671-548-767-976c-19-89-23-132-23-304c0-221,8-280,60-441
		c140-430,488-781,914-924c234-79,516-91,776-34c535,117,984,586,1080,1129c108,609-153,1183-683,1503c-146,89-300,145-486,177
		C1551,3606.09,1292,3605.09,1180,3586.09z M559,2863.09c15-16,15-25,5-65c-13-53-38-73-70-55c-18,9-21,18-16,55c5,45,29,84,52,84
		C537,2882.09,550,2874.09,559,2863.09z M721,2847.09c17-4,26-22,48-102c15-54,32-113,37-130l11-33h639h639v-22
		c0-29-146-558-157-569c-4-4-214-28-466-53c-252-24-460-46-462-48s4-31,14-63l17-60l412-3c356-2,414-4,418-17c10-24-15-45-52-45
		c-35,0-48-22-19-34c19-7,19-29,0-94c-13-42-21-53-42-58c-36-9-53,17-53,83c0,42,4,55,20,65c11,7,20,18,20,25c0,10-65,13-300,13
		c-250,0-300-2-300-14c0-8,7-17,16-20c13-5,15-15,10-47c-12-72-32-109-60-109c-33,0-46,26-46,89c0,40,4,54,20,63c36,23,24,38-29,38
		c-27,0-53,6-58,13c-5,6-72,237-148,512c-75,275-142,515-147,533c-7,24-15,32-32,32c-13,0-37,3-53,6c-24,5-30,11-30,34
		c0,28,0,28,56,23C675,2853.09,709,2849.09,721,2847.09z M2070,2277.09c-51-184-67-227-80-213c-3,2,18,88,45,189
		c68,248,71,255,81,237C2122,2480.09,2105,2404.09,2070,2277.09z M1071,1511.09c35-39,82-16,106,51c9,28,12,31,18,15
		c18-51-28-109-85-109c-65,0-103,65-78,131c5,13,9,7,15-26C1051,1549.09,1062,1521.09,1071,1511.09z M1710,1512.09
		c10-11,28-20,41-20c25,0,64,43,64,71c0,10,5,21,10,24c6,4,10-9,10-33c0-76-88-115-144-63c-29,28-36,55-22,96l10,30l6-42
		C1689,1552.09,1700,1524.09,1710,1512.09z"/>
	<path d="M839,2496.09c4-18,14-56,22-84c14-49,17-51,42-45c15,4,29,8,31,10c8,8-32,145-43,146c-6,0-21,2-34,3
		C835,2529.09,834,2526.09,839,2496.09z"/>
	<path d="M947,2524.09c-15-2-22-9-18-17c3-8,11-41,18-75l12-60h43c51,0,50-8,18,135C1016,2527.09,998,2531.09,947,2524.09z"/>
	<path d="M1045,2513.09c0-7,5-42,12-77l11-64h45c42,0,43,1,38,28c-2,15-7,48-11,74l-6,46l-44,4
		C1056,2526.09,1045,2524.09,1045,2513.09z"/>
	<path d="M1160,2482.09c16-117,13-111,59-108l41,3l-3,50c-6,98-7,100-58,100h-46L1160,2482.09z"/>
	<path d="M1275,2481.09c0-26,3-60,6-75c5-27,8-29,45-26l40,4l-3,70l-3,71l-43,1l-42,1V2481.09z"/>
	<path d="M1413,2524.09c-28-3-28-5-28-73v-69h45h45v69C1475,2526.09,1470,2531.09,1413,2524.09z"/>
	<path d="M1730,2522.09c-1-3-6-33-10-67l-7-63h46c37,0,46,3,46,18c0,9,3,40,6,67l6,50h-42C1752,2527.09,1732,2525.09,1730,2522.09z"
		/>
	<path d="M1841,2516.09c-2-6-7-36-11-67l-7-57h40c39,0,42,2,51,38c24,97,26,90-24,94C1864,2526.09,1844,2523.09,1841,2516.09z"/>
	<path d="M1955,2506.09c-5-11-11-42-15-67l-7-47h30c27,0,30,4,46,58c21,77,21,77-15,77C1971,2527.09,1960,2521.09,1955,2506.09z"/>
	<path d="M1495,2452.09v-70h45h45v39c0,21,3,53,6,70l7,31h-52h-51V2452.09z"/>
	<path d="M1611,2485.09c-3-21-6-53-6-71c0-34,0-34,40-29c23,2,42,6,44,8s7,32,11,67l7,62h-45
		C1618,2522.09,1618,2521.09,1611,2485.09z"/>
	<path d="M1743,2344.09c-32-3-38-7-38-26c0-13-3-44-6-70l-7-47l39,3l39,3l11,68c6,37,8,69,5,70S1763,2346.09,1743,2344.09z"/>
	<path d="M1812,2330.09c-3-13-9-47-13-75c-7-57-5-58,45-44c20,5,27,17,37,61c19,80,19,80-25,80
		C1824,2352.09,1816,2348.09,1812,2330.09z"/>
	<path d="M1903,2282.09l-15-70h28c25,0,30,5,39,43c6,23,15,54,20,70c9,26,7,27-24,27C1919,2352.09,1918,2351.09,1903,2282.09z"/>
	<path d="M1399,2328.09c-3-7-4-42-2-77l3-64l38-3l37-3v80v81h-35C1419,2342.09,1402,2336.09,1399,2328.09z"/>
	<path d="M1495,2267.09v-75h40h40v44c0,24,3,58,6,75l7,31h-47h-46V2267.09z"/>
	<path d="M1601,2296.09c-3-26-6-60-6-75c0-26,3-29,34-29c19,0,37,3,39,8c3,4,8,37,12,75l7,67h-39
		C1608,2342.09,1608,2342.09,1601,2296.09z"/>
	<path d="M997,2325.09c-19-4-23-9-18-26c3-12,11-48,17-79l12-58h39h40l-7,38C1054,2341.09,1057,2336.09,997,2325.09z"/>
	<path d="M1083,2327.09c-2-3,2-41,11-86l15-80l36,6c19,4,35,8,36,8c1,1-4,37-9,80l-10,77h-37
		C1105,2332.09,1086,2330.09,1083,2327.09z"/>
	<path d="M1185,2315.09c0-9,5-45,11-80l11-64l37,3c35,3,36,4,33,43c-1,22-5,57-8,78c-6,35-7,37-45,37
		C1194,2332.09,1185,2328.09,1185,2315.09z"/>
	<path d="M1292,2285.09c8-97,13-115,29-109c9,3,24,6,35,6c17,0,19,8,19,75v75h-44h-44L1292,2285.09z"/>
	<path d="M909,2240.09c20-76,25-83,49-86c32-4,32-4,10,93c-16,75-16,75-49,75h-32L909,2240.09z"/>
	<path d="M1882,2165.09c-10-17-30-123-24-129c20-21,66,60,67,119C1925,2172.09,1891,2180.09,1882,2165.09z"/>
	<path d="M1703,2155.09c-10-2-18-13-18-22c0-10-3-39-6-65l-7-46h31c38,0,41,4,48,79C1758,2166.09,1756,2169.09,1703,2155.09z"/>
	<path d="M1781,2135.09c-3-16-8-45-12-66l-6-38l33,3c35,3,38,8,53,91c7,37,7,37-28,37C1791,2162.09,1786,2158.09,1781,2135.09z"/>
	<path d="M1518,2145.09c-21-4-23-10-23-74v-69h29c17,0,32,3,34,8c3,4,7,36,8,72C1570,2151.09,1567,2155.09,1518,2145.09z"/>
	<path d="M1591,2106.09c-12-89-10-94,29-94c30,0,35,3,35,24c0,13,3,44,6,70l7,46h-35C1599,2152.09,1598,2151.09,1591,2106.09z"/>
	<path d="M1339,2134.09l-32-3l5-67c3-37,9-71,13-75s19-5,34-1c25,6,26,9,26,74c0,38-3,70-7,72
		C1373,2136.09,1356,2136.09,1339,2134.09z"/>
	<path d="M1405,2067.09c0-67,2-75,19-75c45,0,51,9,51,81v69h-35h-35V2067.09z"/>
	<path d="M1215,2108.09c0-23,18-127,23-132c1-1,14,0,30,3c24,5,27,10,27,42c0,20-3,53-6,74c-6,34-9,37-40,37
		C1220,2132.09,1215,2129.09,1215,2108.09z"/>
	<path d="M1025,2107.09c0-9,7-45,16-80c16-64,17-65,50-65c30,0,34,3,30,23c-3,12-10,48-16,80c-11,56-12,57-46,57
		C1035,2122.09,1025,2117.09,1025,2107.09z"/>
	<path d="M1119,2100.09c3-13,10-48,16-78c10-55,11-56,43-52l33,4l-10,74l-9,74h-39C1118,2122.09,1115,2120.09,1119,2100.09z"/>
	<path d="M947,2100.09c3-7,13-43,23-80c16-61,21-68,43-68c20,0,23,4,18,23c-3,12-11,48-17,80c-11,54-13,57-41,57
		C953,2112.09,944,2108.09,947,2100.09z"/>
	<path d="M1095,1558.09c0-21,21-31,30-15c5,7,6,17,4,21C1120,1578.09,1095,1573.09,1095,1558.09z"/>
	<path d="M1731,1563.09c-7-11,18-33,27-24c4,3,7,12,7,20C1765,1574.09,1739,1577.09,1731,1563.09z"/>
</g>
</svg>
